<svg width="18" height="19" viewBox="0 0 18 19" fill="none" xmlns="http://www.w3.org/2000/svg">
<g id="envelope 2">
<path id="Vector" d="M16.3125 2.75C17.2441 2.75 18 3.50551 18 4.4375C18 4.96836 17.7504 5.46758 17.325 5.7875L9.675 11.525C9.27422 11.8238 8.72578 11.8238 8.325 11.525L0.675 5.7875C0.250066 5.46758 0 4.96836 0 4.4375C0 3.50551 0.755508 2.75 1.6875 2.75H16.3125ZM7.65 12.425C8.45156 13.0262 9.54844 13.0262 10.35 12.425L18 6.6875V14C18 15.241 16.991 16.25 15.75 16.25H2.25C1.00723 16.25 0 15.241 0 14V6.6875L7.65 12.425Z" fill="#96999C"/>
</g>
</svg>
