<svg width="18" height="19" viewBox="0 0 18 19" fill="none" xmlns="http://www.w3.org/2000/svg">
<g id="lock-keyhole" clip-path="url(#clip0_67_43)">
<path id="Vector" d="M9.375 0.5C12.1699 0.5 14.4375 2.76652 14.4375 5.5625V7.25H15C16.241 7.25 17.25 8.25898 17.25 9.5V16.25C17.25 17.491 16.241 18.5 15 18.5H3.75C2.50723 18.5 1.5 17.491 1.5 16.25V9.5C1.5 8.25898 2.50723 7.25 3.75 7.25H4.3125V5.5625C4.3125 2.76652 6.58008 0.5 9.375 0.5ZM9.375 2.75C7.82109 2.75 6.5625 4.0093 6.5625 5.5625V7.25H12.1875V5.5625C12.1875 4.0093 10.9289 2.75 9.375 2.75ZM10.5 11.75C10.5 11.1277 9.99727 10.625 9.375 10.625C8.75273 10.625 8.25 11.1277 8.25 11.75V14C8.25 14.6223 8.75273 15.125 9.375 15.125C9.99727 15.125 10.5 14.6223 10.5 14V11.75Z" fill="#96999C"/>
</g>
<defs>
<clipPath id="clip0_67_43">
<rect width="18" height="18" fill="white" transform="translate(0 0.5)"/>
</clipPath>
</defs>
</svg>
